<?xml version="1.0" encoding="utf-8"?>
<!-- Generator: Adobe Illustrator 22.1.0, SVG Export Plug-In . SVG Version: 6.00 Build 0)  -->
<svg version="1.1" id="Layer_1" xmlns="http://www.w3.org/2000/svg" xmlns:xlink="http://www.w3.org/1999/xlink" x="0px" y="0px"
	 viewBox="0 0 53.9 60.2" style="enable-background:new 0 0 53.9 60.2;" xml:space="preserve">
<style type="text/css">
	.st0{fill:#F5F5F5;stroke:#F5F5F5;}
	.st1{fill:#F5F5F5;stroke:#F5F5F5;stroke-width:3;stroke-linecap:round;stroke-linejoin:round;}
</style>
<g id="logo" transform="translate(0.5 0.5)">
	<path id="Path_113" class="st0" d="M39.8,0.6L12,5.2c-2.4,0.4-4,2.7-3.6,5.2l7.3,44.4c0.4,2.4,2.6,4.1,5.1,3.7l27.8-4.6
		c2.4-0.4,4-2.7,3.6-5.2L44.9,4.4C44.5,1.9,42.2,0.3,39.8,0.6z M50.5,49.1c0.3,1.5-0.7,2.8-2.2,3.1l-27.8,4.6
		c-1.5,0.2-2.8-0.8-3-2.2l-7.3-44.4C9.8,8.7,10.8,7.3,12.3,7l27.8-4.6c1.5-0.2,2.8,0.8,3,2.2L50.5,49.1z"/>
	<path id="Path_114" class="st0" d="M39.4,4.4L13.5,8.6c-1,0.2-1.6,1.1-1.4,2.1l6.5,39.1c0.1,1,1.1,1.6,2,1.5L46.5,47
		c1-0.2,1.6-1.1,1.4-2.1L41.5,5.8C41.3,4.9,40.4,4.2,39.4,4.4z M20.2,49.5l-6.5-39.1l25.9-4.3l6.5,39.1L20.2,49.5z"/>
	<path id="Path_115" class="st0" d="M34.7,50.7L32.9,51c-0.5,0.1-0.8,0.5-0.7,1c0.1,0.5,0.5,0.8,1,0.7c0,0,0,0,0,0l1.8-0.3
		c0.5-0.1,0.8-0.5,0.7-1C35.6,51,35.2,50.7,34.7,50.7z"/>
</g>
<line class="st1" x1="2.8" y1="24.1" x2="10.6" y2="22.8"/>
<line class="st1" x1="5.7" y1="29.5" x2="12.5" y2="28.3"/>
<line class="st1" x1="22.6" y1="32.6" x2="39.3" y2="29.8"/>
<line class="st1" x1="10" y1="34.7" x2="11.9" y2="34.3"/>
<line class="st1" x1="23.6" y1="38.3" x2="40.3" y2="35.6"/>
<line class="st1" x1="20.7" y1="21.2" x2="37.4" y2="18.4"/>
<line class="st1" x1="21.7" y1="26.9" x2="38.4" y2="24.1"/>
</svg>
