<?xml version="1.0" encoding="utf-8"?>
<!-- Generator: Adobe Illustrator 22.1.0, SVG Export Plug-In . SVG Version: 6.00 Build 0)  -->
<svg version="1.1" id="Layer_1" xmlns="http://www.w3.org/2000/svg" xmlns:xlink="http://www.w3.org/1999/xlink" x="0px" y="0px"
	 viewBox="0 0 300 300" style="enable-background:new 0 0 300 300;" xml:space="preserve">
<style type="text/css">
	.st0{fill:#627080;}
</style>
<g>
	<polygon class="st0" points="280.9,210.2 236.7,254.4 219.1,236.8 201.4,254.4 236.7,289.8 298.6,227.9 	"/>
	<circle class="st0" cx="150" cy="125" r="50"/>
	<path class="st0" d="M100,187.5c-18.6,0-34.7,10.3-43.3,25.4c20.2,29.9,54.5,49.6,93.3,49.6c6.7,0,13.2-0.8,19.5-1.9
		c-0.4-3.5-0.8-7-0.8-10.6c0-3,0.2-5.9,0.5-8.8c0.1-0.9,0.3-1.9,0.4-2.8c0.3-1.9,0.6-3.9,1-5.8c0.2-1.1,0.5-2.1,0.8-3.1
		c0.5-1.7,0.9-3.4,1.5-5.2c0.4-1.1,0.8-2.1,1.1-3.1c0.6-1.6,1.3-3.2,2-4.8c0.5-1,0.9-2,1.4-2.9c0.8-1.6,1.6-3.1,2.5-4.6
		c0.5-0.9,1.1-1.8,1.6-2.7c1-1.5,2-3,3.1-4.5c0.6-0.8,1.1-1.6,1.7-2.3c1.2-1.6,2.6-3.1,3.9-4.5c0.5-0.6,1-1.2,1.5-1.7
		c1.8-1.9,3.8-3.7,5.8-5.3c0.1-0.1,0.2-0.2,0.3-0.3L100,187.5L100,187.5z"/>
	<path class="st0" d="M150,0C67.2,0,0,67.2,0,150s67.2,150,150,150c11.4,0,22.5-1.4,33.2-3.8c-4.9-7-8.6-14.9-11.1-23.2l0,0
		c-7.2,1.3-14.5,2.1-22.1,2.1c-68.9,0-125-56.1-125-125S81.1,25,150,25s125,56.1,125,125c0,7.6-0.8,14.9-2.1,22.1c0,0,0,0,0,0
		c8.4,2.5,16.2,6.2,23.2,11.1c2.4-10.7,3.8-21.8,3.8-33.2C300,67.2,232.8,0,150,0z"/>
</g>
</svg>
